<?xml version="1.0" encoding="UTF-8" standalone="no"?>
<svg
   viewBox="-11.5 -10.23174 283.50793 252.82851"
   version="1.1"
   id="svg14"
   width="283.50793"
   height="252.82851"
   xmlns="http://www.w3.org/2000/svg"
   xmlns:svg="http://www.w3.org/2000/svg">
  <defs
     id="defs18">
    <clipPath
       clipPathUnits="userSpaceOnUse"
       id="clipPath2272">
      <path
         id="path2274"
         style="display:none;fill:#000000;fill-opacity:0.547192;stroke-width:0.0744674"
         d="m 0.111328,-5.8808594 c -0.42629,-0.016271 -0.853669,0.011799 -1.271484,0.1035156 a 0.37795276,0.37795276 0 0 0 -0.03906,0.00977 l -0.222656,0.074219 c -0.488461,0.1628192 -0.9447772,0.4270164 -1.2265659,0.8027344 a 0.37795276,0.37795276 0 0 0 -0.011719,0.017578 l -0.1484376,0.2246094 a 0.37795276,0.37795276 0 0 0 -0.013672,0.019531 l -1.1171875,1.9355468 a 0.37795276,0.37795276 0 0 0 -0.00781,0.1464844 c -0.4371467,0.6645953 -0.4702314,1.4990003 0.017578,2.2578125 a 0.37795276,0.37795276 0 0 0 0.019531,0.025391 c 0.054948,0.071432 0.1354943,0.1178807 0.1972656,0.1835937 L -4.546875,0.189453 A 0.37795276,0.37795276 0 0 0 -4.7578125,0.361328 L -6.25,2.966797 a 0.37795276,0.37795276 0 0 0 0.099609,0.488281 c 0.6600251,0.497938 1.3781723,0.892311 1.6308594,1.03125 0.9708036,0.533795 2.3030355,1.131331 3.6445316,1.330078 0.678687,0.10055 1.376487,0.102486 2.044922,-0.06055 a 0.37795276,0.37795276 0 0 0 0.02734,-0.0078 l 0.21289,-0.06836 0.0019,-0.0019 C 1.971987,5.512444 2.395334,5.1907 2.671821,4.789119 A 0.37795276,0.37795276 0 0 0 2.75,4.753906 L 4.238281,2.078125 C 4.621072,1.408239 4.506405,0.656735 4.080078,-0.025391 a 0.37795276,0.37795276 0 0 0 -0.03906,-0.05273 C 3.970728,-0.156051 3.877153,-0.207745 3.800783,-0.2792929 l 0.900391,-0.3046875 a 0.37795276,0.37795276 0 0 0 0.203125,-0.1621093 l 1.341797,-2.2343751 a 0.37795276,0.37795276 0 0 0 -0.09961,-0.5 C 5.417023,-4.0163888 4.603809,-4.4419267 4.367188,-4.5664062 3.663404,-4.936646 2.795225,-5.3258402 1.880859,-5.5839844 1.30799,-5.7457172 0.706936,-5.8581262 0.111328,-5.8808594 Z" />
      <path
         id="lpe_path-effect2276"
         style="fill:#000000;fill-opacity:0.547192;stroke-width:0.0744674"
         class="powerclip"
         d="m -16.5,-15.255543 h 33 v 30.511086 h -33 z m 16.611328,9.3746836 c -0.42629,-0.016271 -0.853669,0.011799 -1.271484,0.1035156 a 0.37795276,0.37795276 0 0 0 -0.03906,0.00977 l -0.222656,0.074219 c -0.488461,0.1628192 -0.9447772,0.4270164 -1.2265659,0.8027344 a 0.37795276,0.37795276 0 0 0 -0.011719,0.017578 l -0.1484376,0.2246094 a 0.37795276,0.37795276 0 0 0 -0.013672,0.019531 l -1.1171875,1.9355468 a 0.37795276,0.37795276 0 0 0 -0.00781,0.1464844 c -0.4371467,0.6645953 -0.4702314,1.4990003 0.017578,2.2578125 a 0.37795276,0.37795276 0 0 0 0.019531,0.025391 c 0.054948,0.071432 0.1354943,0.1178807 0.1972656,0.1835937 L -4.546875,0.189453 A 0.37795276,0.37795276 0 0 0 -4.7578125,0.361328 L -6.25,2.966797 a 0.37795276,0.37795276 0 0 0 0.099609,0.488281 c 0.6600251,0.497938 1.3781723,0.892311 1.6308594,1.03125 0.9708036,0.533795 2.3030355,1.131331 3.6445316,1.330078 0.678687,0.10055 1.376487,0.102486 2.044922,-0.06055 a 0.37795276,0.37795276 0 0 0 0.02734,-0.0078 l 0.21289,-0.06836 0.0019,-0.0019 C 1.971987,5.512444 2.395334,5.1907 2.671821,4.789119 A 0.37795276,0.37795276 0 0 0 2.75,4.753906 L 4.238281,2.078125 C 4.621072,1.408239 4.506405,0.656735 4.080078,-0.025391 a 0.37795276,0.37795276 0 0 0 -0.03906,-0.05273 C 3.970728,-0.156051 3.877153,-0.207745 3.800783,-0.2792929 l 0.900391,-0.3046875 a 0.37795276,0.37795276 0 0 0 0.203125,-0.1621093 l 1.341797,-2.2343751 a 0.37795276,0.37795276 0 0 0 -0.09961,-0.5 C 5.417023,-4.0163888 4.603809,-4.4419267 4.367188,-4.5664062 3.663404,-4.936646 2.795225,-5.3258402 1.880859,-5.5839844 1.30799,-5.7457172 0.706936,-5.8581262 0.111328,-5.8808594 Z" />
    </clipPath>
  </defs>
  <g
     stroke="#61dafb"
     stroke-width="1"
     fill="none"
     id="REACT"
     clip-path="url(#clipPath2272)"
     transform="matrix(12.326432,0,0,12.326432,130.25397,116.18251)">
    <ellipse
       rx="11"
       ry="4.1999998"
       id="ellipse6"
       cx="0"
       cy="0"
       d="M 11,0 A 11,4.1999998 0 0 1 0,4.1999998 11,4.1999998 0 0 1 -11,0 11,4.1999998 0 0 1 0,-4.1999998 11,4.1999998 0 0 1 11,0 Z" />
    <ellipse
       rx="11"
       ry="4.1999998"
       transform="rotate(60)"
       id="ellipse8"
       cx="0"
       cy="0"
       d="M 11,0 A 11,4.1999998 0 0 1 0,4.1999998 11,4.1999998 0 0 1 -11,0 11,4.1999998 0 0 1 0,-4.1999998 11,4.1999998 0 0 1 11,0 Z" />
    <ellipse
       rx="11"
       ry="4.1999998"
       transform="rotate(120)"
       id="ellipse10"
       cx="0"
       cy="0"
       d="M 11,0 A 11,4.1999998 0 0 1 0,4.1999998 11,4.1999998 0 0 1 -11,0 11,4.1999998 0 0 1 0,-4.1999998 11,4.1999998 0 0 1 11,0 Z" />
  </g>
  <g
     id="SOLID"
     transform="matrix(0.921616,0,0,0.921616,53.299028,44.63905)">
    <path
       d="M 163,35 C 163,35 110,-4 69,5 l -3,1 c -6,2 -11,5 -14,9 l -2,3 -15,26 26,5 c 11,7 25,10 38,7 l 46,9 z"
       id="path2"
       fill="#76b3e1" />
    <path
       d="M 163,35 C 163,35 110,-4 69,5 l -3,1 c -6,2 -11,5 -14,9 l -2,3 -15,26 26,5 c 11,7 25,10 38,7 l 46,9 z"
       opacity="0.3"
       fill="url(#a)"
       id="path11"
       style="fill:url(#a)" />
    <path
       d="m 52,35 -4,1 C 31,41 26,57 35,71 45,84 66,91 83,86 L 145,65 C 145,65 92,26 52,35 Z"
       fill="#518ac8"
       id="path13" />
    <path
       d="m 52,35 -4,1 C 31,41 26,57 35,71 45,84 66,91 83,86 L 145,65 C 145,65 92,26 52,35 Z"
       opacity="0.3"
       fill="url(#b)"
       id="path22"
       style="fill:url(#b)" />
    <path
       d="M 134,80 A 45,45 0 0 0 86,65 l -62,20 -20,35 112,19 20,-36 c 4,-7 3,-15 -2,-23 z"
       fill="url(#c)"
       id="path31"
       style="fill:url(#c)" />
    <path
       d="M 114,115 A 45,45 0 0 0 66,100 L 4,120 c 0,0 53,40 94,30 l 3,-1 c 17,-5 23,-21 13,-34 z"
       fill="url(#d)"
       id="path40"
       style="fill:url(#d)" />
  </g>
  <linearGradient
     id="a"
     gradientUnits="userSpaceOnUse"
     x1="27.5"
     y1="3"
     x2="152"
     y2="63.5">
    <stop
       offset=".1"
       stop-color="#76b3e1"
       id="stop4" />
    <stop
       offset=".3"
       stop-color="#dcf2fd"
       id="stop6" />
    <stop
       offset="1"
       stop-color="#76b3e1"
       id="stop8" />
  </linearGradient>
  <linearGradient
     id="b"
     gradientUnits="userSpaceOnUse"
     x1="95.800003"
     y1="32.599998"
     x2="74"
     y2="105.2">
    <stop
       offset="0"
       stop-color="#76b3e1"
       id="stop15" />
    <stop
       offset=".5"
       stop-color="#4377bb"
       id="stop17" />
    <stop
       offset="1"
       stop-color="#1f3b77"
       id="stop19" />
  </linearGradient>
  <linearGradient
     id="c"
     gradientUnits="userSpaceOnUse"
     x1="18.4"
     y1="64.199997"
     x2="144.3"
     y2="149.8">
    <stop
       offset="0"
       stop-color="#315aa9"
       id="stop24" />
    <stop
       offset=".5"
       stop-color="#518ac8"
       id="stop26" />
    <stop
       offset="1"
       stop-color="#315aa9"
       id="stop28" />
  </linearGradient>
  <linearGradient
     id="d"
     gradientUnits="userSpaceOnUse"
     x1="75.199997"
     y1="74.5"
     x2="24.4"
     y2="260.79999">
    <stop
       offset="0"
       stop-color="#4377bb"
       id="stop33" />
    <stop
       offset=".5"
       stop-color="#1a336b"
       id="stop35" />
    <stop
       offset="1"
       stop-color="#1a336b"
       id="stop37" />
  </linearGradient>
</svg>
